<?xml version="1.0" encoding="utf-8"?>
<!-- Generator: Adobe Illustrator 26.3.1, SVG Export Plug-In . SVG Version: 6.00 Build 0)  -->
<svg version="1.1" id="Layer_1" xmlns="http://www.w3.org/2000/svg" xmlns:xlink="http://www.w3.org/1999/xlink" x="0px" y="0px"
	 viewBox="0 0 483.7 363.4" style="enable-background:new 0 0 483.7 363.4;" xml:space="preserve">
<style type="text/css">
	.st0{fill:#ECBA68;stroke:#050606;stroke-width:11;stroke-miterlimit:10;}
	.st1{fill:#203B51;stroke:#000000;stroke-width:11;stroke-linecap:round;stroke-linejoin:round;stroke-miterlimit:10;}
	.st2{fill:none;stroke:#000000;stroke-width:11;stroke-linecap:round;stroke-linejoin:round;stroke-miterlimit:10;}
	.st3{fill:#203B51;stroke:#FFFFFF;stroke-width:7;stroke-linecap:round;stroke-linejoin:round;stroke-miterlimit:10;}
</style>
<g>
	<circle class="st0" cx="322.4" cy="104.1" r="88"/>
	<g>
		<path class="st1" d="M35,285.5L35,285.5c0.2,5.2,1,10.5,2.2,15.6"/>
		<path class="st1" d="M192.6,249.3c4.1,9.7,6.4,20.4,6.4,31.7c0,6.9-0.9,13.7-2.5,20.1"/>
		<line class="st2" x1="189.6" y1="319.2" x2="149.7" y2="319.2"/>
		<path class="st1" d="M51.9,230.5c-0.7,0.9-1.4,1.8-2,2.7"/>
		<path class="st2" d="M179.5,227.9C179.5,228,179.5,228,179.5,227.9c0.2,0.3,0.4,0.5,0.6,0.7"/>
		<path class="st1" d="M127.8,281L127.8,281c-34.2,0-63.5-20.8-75.9-50.5c-4.1-9.8-6.3-20.5-6.3-31.7c0-45.4,36.8-82.2,82.2-82.2
			c5.5,0,10.9,0.5,16.1,1.6c37.7,7.5,66.1,40.8,66.1,80.6c0,13.2-3.1,25.7-8.7,36.8v0"/>
		<path class="st1" d="M201.3,235.6c5.2,1,10.6,1.6,16.1,1.6c8.2,0,16.2-1.2,23.7-3.5c9.2-2.8,17.6-7.1,25.1-12.6
			c20.2-15,33.4-39,33.4-66.1c0-12.5-2.8-24.3-7.8-34.9c-13.1-27.9-41.5-47.3-74.4-47.3c-32.2,0-60,18.5-73.5,45.4"/>
		<path class="st1" d="M250.5,319.2h32.2h50.4h73c2.9-8.3,4.4-17.3,4.4-26.6c0-21.6-8.3-41.3-22-55.9c-15-16.2-36.4-26.3-60.2-26.3
			c-2.4,0-4.8,0.1-7.2,0.3c-17.7,1.5-33.7,8.6-46.4,19.6c-7.9,6.8-14.5,15.1-19.4,24.4"/>
		<path class="st1" d="M319.5,278.6c-24.7,0-46.8-10.9-61.8-28.1c-4.8-5.5-8.9-11.6-12.1-18.2c-5.3-10.8-8.2-23-8.2-35.9
			c0-15.8,4.4-30.5,12.1-43c9.6-15.6,24.4-27.8,41.9-34.2c8.8-3.2,18.3-5,28.2-5c26,0,50.9,12.7,66.3,33.6c2.3,3.2,4.4,6.5,6.3,10
			c3.2,6,5.6,12.4,7.2,19c1.5,6.1,2.3,12.4,2.4,18.6c0,0.3,0,0.6,0,0.9c0,1.8-0.1,3.6-0.2,5.4"/>
		<path class="st1" d="M333.1,319.2h73h37.2c16.7-15,27.1-36.8,27.1-61c0-43.2-33.4-78.7-75.8-81.9"/>
	</g>
	<path class="st1" d="M210,198.8c8.2,0,16,1.2,23.5,3.4c12.4,3.7,23.6,10.2,32.8,18.9c3,2.9,5.9,5.9,8.4,9.2
		c10.3,13.1,16.7,29.5,17.4,47.3c0.1,1.1,0.1,2.3,0.1,3.4c0,13.8-3.4,26.8-9.4,38.2h-32.2c0,0-60.9,0-60.9,0
		c-16.8,0-33.3-1.4-50,1.1c-24.1,3.7-48.1,11.4-71.3,18.7c0,0-52.7,14.2-52.7,14.2c6.3-23.8,29.2-100.8,35.6-124.6"/>
	<path class="st3" d="M267.3,111.7c0,0-51.7-48.4-102.6,5"/>
	<path class="st3" d="M216,217.8c0,0,75.4,11.1,59.5,83.3"/>
	<path class="st3" d="M397.7,194.1c0,0,72.6,19.4,46.8,93.3"/>
</g>
</svg>
